<?xml version="1.0" encoding="UTF-8" standalone="no"?>
<svg
   height="128px"
   viewBox="0 0 128 128"
   width="128px"
   version="1.1"
   id="svg286"
   sodipodi:docname="org.openandroidinstaller.OpenAndroidInstaller.svg"
   inkscape:version="1.4 (e7c3feb100, 2024-10-09)"
   xmlns:inkscape="http://www.inkscape.org/namespaces/inkscape"
   xmlns:sodipodi="http://sodipodi.sourceforge.net/DTD/sodipodi-0.dtd"
   xmlns:xlink="http://www.w3.org/1999/xlink"
   xmlns="http://www.w3.org/2000/svg"
   xmlns:svg="http://www.w3.org/2000/svg">
  <sodipodi:namedview
     id="namedview1"
     pagecolor="#ffffff"
     bordercolor="#000000"
     borderopacity="0.25"
     inkscape:showpageshadow="2"
     inkscape:pageopacity="0.0"
     inkscape:pagecheckerboard="0"
     inkscape:deskcolor="#d1d1d1"
     inkscape:zoom="0.5114059"
     inkscape:cx="-131.98909"
     inkscape:cy="-27.375515"
     inkscape:window-width="1536"
     inkscape:window-height="795"
     inkscape:window-x="0"
     inkscape:window-y="0"
     inkscape:window-maximized="1"
     inkscape:current-layer="svg286" />
  <defs
     id="defs290">
    <inkscape:path-effect
       effect="fillet_chamfer"
       id="path-effect4"
       is_visible="true"
       lpeversion="1"
       nodesatellites_param="F,0,0,1,0,2,0,1 @ F,0,1,1,0,1,0,1 @ F,0,0,1,0,3,0,1 @ F,0,0,1,0,0,0,1 @ F,0,0,1,0,2,0,1 @ F,0,0,1,0,0,0,1 @ F,0,0,1,0,3,0,1 @ F,0,1,1,0,1,0,1 @ F,0,0,1,0,2,0,1"
       radius="1"
       unit="px"
       method="auto"
       mode="F"
       chamfer_steps="1"
       flexible="false"
       use_knot_distance="true"
       apply_no_radius="true"
       apply_with_radius="true"
       only_selected="true"
       hide_knots="false" />
    <inkscape:path-effect
       effect="fillet_chamfer"
       id="path-effect3"
       is_visible="true"
       lpeversion="1"
       nodesatellites_param="F,0,0,1,0,0,0,1 @ F,0,0,1,0,0,0,1 @ F,0,0,1,0,0,0,1 @ F,0,0,1,0,0,0,1 @ F,0,1,1,0,6,0,1 @ F,0,1,1,0,6,0,1 @ F,0,0,1,0,0,0,1 @ F,0,0,1,0,0,0,1 @ F,0,0,1,0,0,0,1 @ F,0,0,1,0,0,0,1 @ F,0,0,1,0,0,0,1 @ F,0,0,1,0,0,0,1 @ F,0,0,1,0,0,0,1 @ F,0,0,1,0,0,0,1 | F,0,0,1,0,0,0,1 @ F,0,0,1,0,0,0,1 @ F,0,0,1,0,0,0,1 @ F,0,0,1,0,0,0,1 | F,0,0,1,0,0,0,1 @ F,0,0,1,0,0,0,1 @ F,0,0,1,0,0,0,1 @ F,0,0,1,0,0,0,1"
       radius="6"
       unit="px"
       method="auto"
       mode="F"
       chamfer_steps="1"
       flexible="false"
       use_knot_distance="true"
       apply_no_radius="true"
       apply_with_radius="true"
       only_selected="true"
       hide_knots="false" />
    <linearGradient
       id="linearGradient3">
      <stop
         id="stop2"
         offset="0"
         style="stop-color:#57e389;stop-opacity:1" />
      <stop
         id="stop3"
         offset="1"
         style="stop-color:#26a269;stop-opacity:1" />
    </linearGradient>
    <radialGradient
       r="225"
       fy="-60.347851"
       fx="106.66667"
       cy="-60.347851"
       cx="106.66667"
       gradientTransform="matrix(0.4692256,0,0,0.30138541,140.91896,48.14089)"
       gradientUnits="userSpaceOnUse"
       id="radialGradient1018"
       xlink:href="#linearGradient6826" />
    <linearGradient
       id="linearGradient6826">
      <stop
         id="stop6822"
         offset="0"
         style="stop-color:#0a9e8c;stop-opacity:1;" />
      <stop
         id="stop6824"
         offset="1"
         style="stop-color:#076e62;stop-opacity:1;" />
    </linearGradient>
    <linearGradient
       inkscape:collect="always"
       xlink:href="#linearGradient3"
       id="linearGradient2"
       x1="64"
       y1="10"
       x2="64"
       y2="110"
       gradientUnits="userSpaceOnUse" />
  </defs>
  <linearGradient
     id="a"
     gradientUnits="userSpaceOnUse"
     x1="11.999989"
     x2="115.999989"
     y1="64"
     y2="64">
    <stop
       offset="0"
       stop-color="#3d3846"
       id="stop252"
       style="stop-color:#c6c2ce;stop-opacity:1;" />
    <stop
       offset="0.05"
       stop-color="#77767b"
       id="stop254"
       style="stop-color:#e9e9e9;stop-opacity:1;" />
    <stop
       offset="0.1"
       stop-color="#5e5c64"
       id="stop256"
       style="stop-color:#d9d8db;stop-opacity:1;" />
    <stop
       offset="0.89999902"
       stop-color="#504e56"
       id="stop258"
       style="stop-color:#d9d8db;stop-opacity:1;" />
    <stop
       offset="0.94999999"
       stop-color="#77767b"
       id="stop260"
       style="stop-color:#e9e9e9;stop-opacity:1;" />
    <stop
       offset="1"
       stop-color="#3d3846"
       id="stop262"
       style="stop-color:#c6c2ce;stop-opacity:1;" />
  </linearGradient>
  <linearGradient
     id="b"
     gradientUnits="userSpaceOnUse"
     x1="12"
     x2="112.041023"
     y1="60"
     y2="80.988281">
    <stop
       offset="0"
       stop-color="#77767b"
       id="stop265"
       style="stop-color:#e9e9ea;stop-opacity:1;" />
    <stop
       offset="0.38444301"
       stop-color="#9a9996"
       id="stop267"
       style="stop-color:#f5f5f5;stop-opacity:1;" />
    <stop
       offset="0.72056699"
       stop-color="#77767b"
       id="stop269"
       style="stop-color:#bdbdbf;stop-opacity:1;" />
    <stop
       offset="1"
       stop-color="#68666f"
       id="stop271"
       style="stop-color:#b5b4ba;stop-opacity:1;" />
  </linearGradient>
  <path
     d="m 20 22 h 88 c 4.417969 0 8 3.582031 8 8 v 78 c 0 4.417969 -3.582031 8 -8 8 h -88 c -4.417969 0 -8 -3.582031 -8 -8 v -78 c 0 -4.417969 3.582031 -8 8 -8 z m 0 0"
     fill="url(#a)"
     id="path274"
     clip-path="none" />
  <path
     d="m 20 12 h 88 c 4.417969 0 8 3.582031 8 8 v 80 c 0 4.417969 -3.582031 8 -8 8 h -88 c -4.417969 0 -8 -3.582031 -8 -8 v -80 c 0 -4.417969 3.582031 -8 8 -8 z m 0 0"
     fill="url(#b)"
     id="path276"
     clip-path="none" />
  <path
     d="m 20 14 h 88 c 3.3125 0 6 2.6875 6 6 v 80 c 0 3.3125 -2.6875 6 -6 6 h -88 c -3.3125 0 -6 -2.6875 -6 -6 v -80 c 0 -3.3125 2.6875 -6 6 -6 z m 0 0"
     fill="#241f31"
     id="path278"
     clip-path="none"
     style="fill:url(#linearGradient2)" />
  <g
     id="g5"
     transform="translate(0,-1)">
    <path
       id="path30"
       style="fill:#ffffff;fill-opacity:1"
       d="m 37.960938,33.603516 c -0.743737,0 -1.487038,0.291675 -2.070313,0.875 -1.16666,1.16666 -1.16666,2.974075 0,4.140625 l 7.642578,7.642578 c -7.154005,5.268853 -10.892705,14.553752 -11.96397,24.185929 -0.366096,3.291718 2.357293,5.987899 5.671001,5.987899 h 54 c 3.313708,0 6.037167,-2.696191 5.671053,-5.987913 C 95.838248,60.799965 92.084052,51.472523 84.832031,46.203125 l 7.583985,-7.583984 c 1.16665,-1.166649 1.16665,-2.974075 0,-4.140625 -1.16665,-1.16665 -2.976028,-1.16665 -4.142578,0 l -8.632813,8.632812 c -4.6081,-2.33334 -9.858491,-3.673828 -15.400391,-3.673828 -5.6,0 -10.849775,1.340488 -15.515625,3.673828 l -8.691406,-8.632812 c -0.58333,-0.583325 -1.328529,-0.875 -2.072265,-0.875 z m 11.25,21.333984 c 2.416248,-4e-6 4.375004,1.958752 4.375,4.375 4e-6,2.416248 -1.958752,4.375004 -4.375,4.375 -2.416248,4e-6 -4.375004,-1.958752 -4.375,-4.375 -4e-6,-2.416248 1.958752,-4.375004 4.375,-4.375 z m 30.029296,0 c 2.416248,-4e-6 4.375004,1.958752 4.375,4.375 4e-6,2.416248 -1.958752,4.375004 -4.375,4.375 -2.416248,4e-6 -4.375004,-1.958752 -4.375,-4.375 -4e-6,-2.416248 1.958752,-4.375004 4.375,-4.375 z"
       inkscape:path-effect="#path-effect3"
       inkscape:original-d="m 37.960938,33.603516 c -0.743737,0 -1.487038,0.291675 -2.070313,0.875 -1.16666,1.16666 -1.16666,2.974075 0,4.140625 l 7.642578,7.642578 c -8.63345,6.35845 -12.292969,18.565728 -12.292969,30.173828 h 66 c 0,-11.608099 -3.657853,-23.874322 -12.408203,-30.232422 l 7.583985,-7.583984 c 1.16665,-1.166649 1.16665,-2.974075 0,-4.140625 -1.16665,-1.16665 -2.976028,-1.16665 -4.142578,0 l -8.632813,8.632812 c -4.6081,-2.33334 -9.858491,-3.673828 -15.400391,-3.673828 -5.6,0 -10.849775,1.340488 -15.515625,3.673828 l -8.691406,-8.632812 c -0.58333,-0.583325 -1.328529,-0.875 -2.072265,-0.875 z m 11.25,21.333984 c 2.416248,-4e-6 4.375004,1.958752 4.375,4.375 4e-6,2.416248 -1.958752,4.375004 -4.375,4.375 -2.416248,4e-6 -4.375004,-1.958752 -4.375,-4.375 -4e-6,-2.416248 1.958752,-4.375004 4.375,-4.375 z m 30.029296,0 c 2.416248,-4e-6 4.375004,1.958752 4.375,4.375 4e-6,2.416248 -1.958752,4.375004 -4.375,4.375 -2.416248,4e-6 -4.375004,-1.958752 -4.375,-4.375 -4e-6,-2.416248 1.958752,-4.375004 4.375,-4.375 z"
       sodipodi:nodetypes="sccccccscccsccsssssssssss"
       transform="matrix(0.97847048,0,0,0.98057456,1.1428013,-9.9507529)" />
    <path
       id="rect3"
       style="fill:#ffffff;stroke-width:0.696695"
       d="m 57,76 v 9 a 1,1 135 0 1 -1,1 h -5 a 1.3471982,1.3471982 114.18323 0 0 -1.006908,2.242228 L 56,95 l 6.671272,7.50518 a 1.7777778,1.7777778 0 0 0 2.657456,0 L 72,95 78.006908,88.242228 A 1.3471982,1.3471982 65.81677 0 0 77,86 H 72 A 1,1 45 0 1 71,85 V 76 A 2,2 45 0 0 69,74 H 59 a 2,2 135 0 0 -2,2 z"
       inkscape:path-effect="#path-effect4"
       inkscape:original-d="m 57,74 v 12 h -9 l 8,9 8,9 8,-9 8,-9 H 71 V 74 Z"
       transform="translate(0,-4.9999999)" />
    <rect
       style="fill:#ffffff;stroke-width:0.866732"
       id="rect4"
       width="14"
       height="36"
       x="20"
       y="64"
       rx="7"
       ry="7" />
    <rect
       style="fill:#ffffff;stroke-width:0.866732"
       id="rect5"
       width="14"
       height="36"
       x="94"
       y="64"
       rx="7"
       ry="7" />
  </g>
</svg>
